<svg width="24" height="24" viewBox="0 0 24 24" fill="none" xmlns="http://www.w3.org/2000/svg">
  <path d="M7 4V2C7 1.44772 7.44772 1 8 1H16C16.5523 1 17 1.44772 17 2V4H20C20.5523 4 21 4.44772 21 5C21 5.55228 20.5523 6 20 6H4C3.44772 6 3 5.55228 3 5C3 4.44772 3.44772 4 4 4H7Z" fill="currentColor"/>
  <path d="M5 8V19C5 20.1046 5.89543 21 7 21H17C18.1046 21 19 20.1046 19 19V8H5Z" fill="currentColor" opacity="0.8"/>
  <rect x="8" y="11" width="2" height="6" rx="1" fill="white"/>
  <rect x="11" y="11" width="2" height="6" rx="1" fill="white"/>
  <rect x="14" y="11" width="2" height="6" rx="1" fill="white"/>
  <circle cx="9" cy="3" r="0.5" fill="currentColor" opacity="0.6"/>
  <circle cx="12" cy="3" r="0.5" fill="currentColor" opacity="0.6"/>
  <circle cx="15" cy="3" r="0.5" fill="currentColor" opacity="0.6"/>
</svg>
